<?xml version="1.0" encoding="UTF-8"?>
<svg version="1.1" xmlns="http://www.w3.org/2000/svg" width="160" height="81">
<path d="M0 0 C52.8 0 105.6 0 160 0 C160 26.73 160 53.46 160 81 C107.2 81 54.4 81 0 81 C0 54.27 0 27.54 0 0 Z " fill="#F9F9F9" transform="translate(0,0)"/>
<path d="M0 0 C3.8026029 2.0050088 5.61790841 3.42686262 8 7 C8.16834777 8.80766866 8.26571185 10.62261218 8.3125 12.4375 C8.57616505 17.03179682 8.57616505 17.03179682 11.5 20.5625 C12.325 21.036875 13.15 21.51125 14 22 C15.32229189 24.64458379 15.09677194 26.67761301 15.0625 29.625 C15.05347656 30.62789062 15.04445312 31.63078125 15.03515625 32.6640625 C15.02355469 33.43492188 15.01195312 34.20578125 15 35 C16.98 35 18.96 35 21 35 C21 37.97 21 40.94 21 44 C19.02 44 17.04 44 15 44 C15 45.98 15 47.96 15 50 C2.46 50 -10.08 50 -23 50 C-23 48.02 -23 46.04 -23 44 C-24.98 44 -26.96 44 -29 44 C-29 41.03 -29 38.06 -29 35 C-27.02 35 -25.04 35 -23 35 C-23.04640625 34.26394531 -23.0928125 33.52789062 -23.140625 32.76953125 C-23.43799253 24.72998756 -23.43799253 24.72998756 -21.125 20.875 C-19 19 -19 19 -17 18 C-16.68313671 15.84207531 -16.68313671 15.84207531 -16.625 13.3125 C-16.24233021 8.53596096 -15.16620502 5.72494709 -12 2 C-7.96127401 -0.69248399 -4.74486631 -0.67205444 0 0 Z " fill="#161616" transform="translate(80,23)"/>
<path d="M0 0 C2.625 0.375 2.625 0.375 5.0625 1.875 C8.23670526 3.73307137 9.99609563 3.82861305 13.625 3.375 C15.30239862 2.39310813 16.96967377 1.39366229 18.625 0.375 C21.1875 -0.125 21.1875 -0.125 23.625 0.375 C25.9375 2.3125 25.9375 2.3125 27.625 5.375 C27.625 8.345 27.625 11.315 27.625 14.375 C16.735 14.375 5.845 14.375 -5.375 14.375 C-5.375 10.745 -5.375 7.115 -5.375 3.375 C-2.375 0.375 -2.375 0.375 0 0 Z " fill="#FAFAFA" transform="translate(65.375,43.625)"/>
<path d="M0 0 C13.53 0 27.06 0 41 0 C40.67 2.64 40.34 5.28 40 8 C27.46 8 14.92 8 2 8 C1.34 5.36 0.68 2.72 0 0 Z " fill="#050505" transform="translate(55,65)"/>
<path d="M0 0 C0.97965981 -0.00430527 0.97965981 -0.00430527 1.97911072 -0.00869751 C3.35497916 -0.0107328 4.73087688 -0.00524028 6.10668945 0.00732422 C8.21175719 0.02341391 10.31491286 0.00744673 12.41992188 -0.01171875 C13.75911881 -0.00973673 15.09831456 -0.00589389 16.4375 0 C17.6531665 0.00338379 18.86883301 0.00676758 20.12133789 0.01025391 C23.15234375 0.3984375 23.15234375 0.3984375 25.08374023 1.79052734 C26.15234375 3.3984375 26.15234375 3.3984375 25.96484375 5.5234375 C25.15234375 7.3984375 25.15234375 7.3984375 23.15234375 8.3984375 C20.31980645 8.49750995 17.51237751 8.538262 14.6796875 8.53125 C13.84143936 8.53220673 13.00319122 8.53316345 12.13954163 8.53414917 C10.36670863 8.5348301 8.59387314 8.53298184 6.82104492 8.52880859 C4.09743698 8.52345243 1.37399346 8.52875993 -1.34960938 8.53515625 C-3.06901078 8.53449558 -4.78841209 8.53321466 -6.5078125 8.53125 C-7.73746483 8.53428635 -7.73746483 8.53428635 -8.99195862 8.53738403 C-14.73270118 8.51339257 -14.73270118 8.51339257 -15.84765625 7.3984375 C-15.88829457 5.73226635 -15.89037725 4.06455655 -15.84765625 2.3984375 C-15.10515625 2.6253125 -14.36265625 2.8521875 -13.59765625 3.0859375 C-12.69015625 3.1890625 -11.78265625 3.2921875 -10.84765625 3.3984375 C-10.27217041 2.91810059 -9.69668457 2.43776367 -9.10375977 1.94287109 C-5.99744447 -0.18358173 -3.74064723 0.01040238 0 0 Z " fill="#E3E3E3" transform="translate(63.84765625,72.6015625)"/>
<path d="M0 0 C2.64647134 0.60283111 3.7210839 1.19728738 5.54296875 3.17578125 C7.60086071 6.87998678 8.27923019 8.41672634 7.41796875 12.55078125 C5.56905386 15.46690069 3.55802743 17.98075191 0.41796875 19.55078125 C-3.64164427 20.10436484 -5.35955106 19.67850136 -8.95703125 17.61328125 C-11.49922899 15.26509334 -12.04648634 13.48529561 -12.20703125 10.05078125 C-11.96668299 7.05143522 -11.46252284 5.28460342 -10.20703125 2.48828125 C-6.74229981 -0.06902053 -4.2413192 -0.21927056 0 0 Z " fill="#F9F9F9" transform="translate(78.58203125,25.44921875)"/>
<path d="M0 0 C12.66970387 0.77904328 12.66970387 0.77904328 18 3 C17.9375 5.3125 17.9375 5.3125 17 8 C13.4375 9.8125 13.4375 9.8125 10 11 C10.61875 11.309375 11.2375 11.61875 11.875 11.9375 C13.25 12.625 14.625 13.3125 16 14 C16 15.32 16 16.64 16 18 C9.42208127 17.58955515 3.25948114 17.13391403 -3 15 C-2.8125 13.1875 -2.8125 13.1875 -2 11 C0.375 9.375 0.375 9.375 3 8 C3.99 7.34 4.98 6.68 6 6 C3.69 5.34 1.38 4.68 -1 4 C-0.67 2.68 -0.34 1.36 0 0 Z " fill="#0F0F0F" transform="translate(12,47)"/>
<path d="M0 0 C3.66060821 0.58536753 5.54535164 2.083239 8.25 4.5625 C8.95640625 5.20316406 9.6628125 5.84382813 10.390625 6.50390625 C10.92171875 6.99761719 11.4528125 7.49132812 12 8 C11.01 9.485 11.01 9.485 10 11 C7.0280615 9.87548273 4.66559313 8.77706209 2 7 C1.77390663 9.12364481 1.77390663 9.12364481 3.5 10.625 C4.2425 11.305625 4.2425 11.305625 5 12 C4.01 13.485 4.01 13.485 3 15 C1 14 -1 13 -3 12 C-3 12.99 -3 13.98 -3 15 C-2.38125 15.268125 -1.7625 15.53625 -1.125 15.8125 C1 17 1 17 3 20 C1.02 20.99 1.02 20.99 -1 22 C-3.97 19.69 -6.94 17.38 -10 15 C-8.2446196 10.611549 -6.80648602 8.23365244 -3.875 4.6875 C-3.15054688 3.80449219 -2.42609375 2.92148438 -1.6796875 2.01171875 C-1.12539062 1.34785156 -0.57109375 0.68398437 0 0 Z " fill="#0E0E0E" transform="translate(111,11)"/>
<path d="M0 0 C0 1.32 0 2.64 0 4 C-0.77085937 4.08636719 -1.54171875 4.17273437 -2.3359375 4.26171875 C-3.33882812 4.40222656 -4.34171875 4.54273438 -5.375 4.6875 C-6.37273437 4.81511719 -7.37046875 4.94273438 -8.3984375 5.07421875 C-9.25695312 5.37972656 -10.11546875 5.68523438 -11 6 C-11.66 7.65 -12.32 9.3 -13 11 C-6.07 10.01 -6.07 10.01 1 9 C1.33 10.65 1.66 12.3 2 14 C-3.33299583 15.81548794 -8.35777816 16.84960097 -14 16 C-16.5625 14.5 -16.5625 14.5 -18 12 C-18.50350771 9.09019382 -18.33546025 7.01914221 -18 4 C-15.82348233 1.03075704 -13.66805815 0.41768877 -10.125 -0.25 C-9.28195313 -0.42015625 -8.43890625 -0.5903125 -7.5703125 -0.765625 C-4.82222234 -1.01621073 -2.66475756 -0.66857717 0 0 Z " fill="#121212" transform="translate(141,48)"/>
<path d="M0 0 C4.6182583 0.54792895 7.98149647 2.58964488 11.8125 5.0625 C12.40998047 5.43955078 13.00746094 5.81660156 13.62304688 6.20507812 C15.08636577 7.12989566 16.54379523 8.06402065 18 9 C17.34 10.32 16.68 11.64 16 13 C15.236875 12.95875 14.47375 12.9175 13.6875 12.875 C10.77281584 12.77919176 10.77281584 12.77919176 8 15 C7.27034634 17.56282742 7.27034634 17.56282742 7 20 C5.68 20.33 4.36 20.66 3 21 C2.1068861 18.2547237 1.2352727 15.50556099 0.375 12.75 C0.11976562 11.97269531 -0.13546875 11.19539063 -0.3984375 10.39453125 C-0.74648438 9.26337891 -0.74648438 9.26337891 -1.1015625 8.109375 C-1.43148193 7.07248535 -1.43148193 7.07248535 -1.76806641 6.01464844 C-2.06390665 3.44488662 -1.31846585 2.17610868 0 0 Z " fill="#141414" transform="translate(37,12)"/>
<path d="M0 0 C5.64028777 2.92086331 5.64028777 2.92086331 7 7 C4.13275314 6.42655063 3.1385485 6.1385485 1 4 C-1.33238067 3.60498771 -1.33238067 3.60498771 -3.9375 3.625 C-4.81277344 3.59664062 -5.68804687 3.56828125 -6.58984375 3.5390625 C-9.11564329 3.79244912 -9.11564329 3.79244912 -10.78515625 5.7421875 C-12.78082255 9.45117502 -12.79628885 12.90587338 -12 17 C-9.45528778 20.06862356 -7.91058019 20.84823663 -4 21.5 C-0.34779405 20.89129901 1.33545168 19.50781019 4 17 C4.66 17.33 5.32 17.66 6 18 C3.97372883 20.93809319 2.12053803 23.21683541 -1 25 C-5.79848203 25.61257217 -7.99192851 24.46650553 -12 22 C-14.62694422 21.58219121 -14.62694422 21.58219121 -17 22 C-19.58926331 24.58926331 -19.37398043 26.02705279 -19.625 29.625 C-19.69976562 30.62789062 -19.77453125 31.63078125 -19.8515625 32.6640625 C-19.90054688 33.43492188 -19.94953125 34.20578125 -20 35 C-20.33 35 -20.66 35 -21 35 C-21.22786458 33.01432292 -21.45572917 31.02864583 -21.68359375 29.04296875 C-21.97170735 26.80603607 -21.97170735 26.80603607 -23 24 C-19.83636364 19.41818182 -19.83636364 19.41818182 -17 18 C-16.68313671 15.84207531 -16.68313671 15.84207531 -16.625 13.3125 C-16.24233021 8.53596096 -15.16620502 5.72494709 -12 2 C-7.96059897 -0.69293402 -4.7452917 -0.6709697 0 0 Z " fill="#202020" transform="translate(80,23)"/>
<path d="M0 0 C2.9375 2.5 2.9375 2.5 5 5 C4.01 6.485 4.01 6.485 3 8 C1 8 1 8 -0.5 6.5625 C-0.995 6.046875 -1.49 5.53125 -2 5 C-2.66 4.67 -3.32 4.34 -4 4 C-4 4.99 -4 5.98 -4 7 C-3.38125 7.28875 -2.7625 7.5775 -2.125 7.875 C0 9 0 9 2 11 C1.54545455 16.45454545 1.54545455 16.45454545 -1 19 C-4.33911969 19.44949688 -6.85396635 19.71658313 -9.79296875 17.87890625 C-11.25460033 16.65335768 -12.63468722 15.33201246 -14 14 C-13.34 12.68 -12.68 11.36 -12 10 C-11.34 10 -10.68 10 -10 10 C-9.01 11.485 -9.01 11.485 -8 13 C-5.94074861 13.72382467 -5.94074861 13.72382467 -4 14 C-4.804375 13.195625 -5.60875 12.39125 -6.4375 11.5625 C-10 8 -10 8 -10.25 5.625 C-10 3 -10 3 -8.9375 1.1875 C-5.81712449 -0.72498821 -3.57305585 -0.49283529 0 0 Z " fill="#101010" transform="translate(98,3)"/>
<path d="M0 0 C0.99 0 1.98 0 3 0 C2.67 1.258125 2.34 2.51625 2 3.8125 C0.77549156 9.22793168 0.81411052 14.47495171 1 20 C-0.32 20.33 -1.64 20.66 -3 21 C-3.515625 19.824375 -4.03125 18.64875 -4.5625 17.4375 C-6.59807834 13.3002054 -9.20925046 10.51685358 -12.609375 7.4453125 C-14 6 -14 6 -14 4 C-8.58461538 3.63076923 -8.58461538 3.63076923 -5.625 5.5 C-5.08875 5.995 -4.5525 6.49 -4 7 C-3.71125 6.21625 -3.4225 5.4325 -3.125 4.625 C-2 2 -2 2 0 0 Z " fill="#111111" transform="translate(65,0)"/>
<path d="M0 0 C0.66 0 1.32 0 2 0 C2.37511719 0.75925781 2.75023437 1.51851562 3.13671875 2.30078125 C3.64847656 3.29464844 4.16023438 4.28851563 4.6875 5.3125 C5.18636719 6.29863281 5.68523438 7.28476562 6.19921875 8.30078125 C8.16492731 11.24721209 9.86300569 12.4341749 13 14 C12.625 15.9375 12.625 15.9375 12 18 C11.34 18.33 10.68 18.66 10 19 C9.21625 18.54625 8.4325 18.0925 7.625 17.625 C2.52457838 15.3386041 -2.46718316 15.25963056 -8 15 C-7.2265625 13.046875 -7.2265625 13.046875 -6 11 C-2.375 10.25 -2.375 10.25 1 10 C0.67 9.443125 0.34 8.88625 0 8.3125 C-1.14011312 5.67598842 -1.2306312 3.84445144 -1 1 C-0.67 0.67 -0.34 0.34 0 0 Z " fill="#0C0C0C" transform="translate(24,23)"/>
<path d="M0 0 C14.85 0 29.7 0 45 0 C45 0.99 45 1.98 45 3 C30.15 3 15.3 3 0 3 C0 2.01 0 1.02 0 0 Z " fill="#F5F5F5" transform="translate(54,61)"/>
<path d="M0 0 C1.890625 0.12109375 1.890625 0.12109375 4 1 C5.484375 3.28515625 5.484375 3.28515625 6.75 6.0625 C7.17796875 6.98160156 7.6059375 7.90070312 8.046875 8.84765625 C8.36140625 9.55792969 8.6759375 10.26820312 9 11 C7.02 11.99 7.02 11.99 5 13 C4.67 12.01 4.34 11.02 4 10 C2.87851563 10.66708984 2.87851563 10.66708984 1.734375 11.34765625 C0.25710937 12.19650391 0.25710937 12.19650391 -1.25 13.0625 C-2.22453125 13.63097656 -3.1990625 14.19945312 -4.203125 14.78515625 C-7 16 -7 16 -9.359375 15.68359375 C-9.90078125 15.45800781 -10.4421875 15.23242188 -11 15 C-10.63165987 12.34795104 -10.3132309 11.26159944 -8.22265625 9.515625 C-7.50980469 9.09796875 -6.79695313 8.6803125 -6.0625 8.25 C-5.35222656 7.82203125 -4.64195313 7.3940625 -3.91015625 6.953125 C-2 6 -2 6 0 6 C-0.2784375 4.7934375 -0.2784375 4.7934375 -0.5625 3.5625 C-0.706875 2.716875 -0.85125 1.87125 -1 1 C-0.67 0.67 -0.34 0.34 0 0 Z " fill="#0C0C0C" transform="translate(127,27)"/>
<path d="M0 0 C1.65 0 3.3 0 5 0 C4.01 0.495 4.01 0.495 3 1 C3 2.65 3 4.3 3 6 C17.52 6 32.04 6 47 6 C47 6.33 47 6.66 47 7 C26.21 7.495 26.21 7.495 5 8 C5 8.33 5 8.66 5 9 C3.35 9 1.7 9 0 9 C0 6.03 0 3.06 0 0 Z " fill="#1B1B1B" transform="translate(51,58)"/>
<path d="M0 0 C0.928125 0.20625 1.85625 0.4125 2.8125 0.625 C3.1425 2.275 3.4725 3.925 3.8125 5.625 C-0.0378105 8.19187367 -1.77319763 7.45788724 -6.1875 6.625 C-6.375 4.25 -6.375 4.25 -6.1875 1.625 C-3.1875 -0.375 -3.1875 -0.375 0 0 Z " fill="#BFBFBF" transform="translate(86.1875,73.375)"/>
<path d="M0 0 C0.33 0 0.66 0 1 0 C1.33 2.97 1.66 5.94 2 9 C17.84 9.495 17.84 9.495 34 10 C34 10.33 34 10.66 34 11 C21.46 11 8.92 11 -4 11 C-3.34 10.34 -2.68 9.68 -2 9 C-1.57862715 7.06008596 -1.57862715 7.06008596 -1.4375 4.9375 C-1 1 -1 1 0 0 Z " fill="#020202" transform="translate(58,49)"/>
<path d="M0 0 C0.7425 0.185625 1.485 0.37125 2.25 0.5625 C4.94990963 0.99203108 6.44631077 0.85122974 9 0 C9.33 1.32 9.66 2.64 10 4 C6.55892734 6.29404844 5.03160191 6.26293056 1 6 C0 5 0 5 -0.0625 2.4375 C-0.041875 1.633125 -0.02125 0.82875 0 0 Z " fill="#A3A3A3" transform="translate(48,75)"/>
<path d="M0 0 C2.31 0 4.62 0 7 0 C6.01 0.495 6.01 0.495 5 1 C5 1.66 5 2.32 5 3 C5.99 3.33 6.98 3.66 8 4 C5 6 5 6 2.3125 5.625 C1.549375 5.41875 0.78625 5.2125 0 5 C0 3.35 0 1.7 0 0 Z " fill="#999999" transform="translate(120,75)"/>
<path d="M0 0 C0.66 0.33 1.32 0.66 2 1 C1.52433594 1.81210937 1.52433594 1.81210937 1.0390625 2.640625 C-0.18307974 5.4157149 -0.40943436 7.73208098 -0.625 10.75 C-0.69976562 11.73484375 -0.77453125 12.7196875 -0.8515625 13.734375 C-0.90054688 14.48203125 -0.94953125 15.2296875 -1 16 C-1.33 16 -1.66 16 -2 16 C-2.22786458 14.01432292 -2.45572917 12.02864583 -2.68359375 10.04296875 C-2.97170735 7.80603607 -2.97170735 7.80603607 -4 5 C-2.0625 2.3125 -2.0625 2.3125 0 0 Z " fill="#3A3A3A" transform="translate(61,42)"/>
<path d="M0 0 C2.64 0 5.28 0 8 0 C7.34 0.66 6.68 1.32 6 2 C5.35232207 4.57061311 5.35232207 4.57061311 5 7 C5.99 7.33 6.98 7.66 8 8 C6.02 8 4.04 8 2 8 C2.04125 7.05125 2.0825 6.1025 2.125 5.125 C2.34973818 1.89755144 2.34973818 1.89755144 0 0 Z " fill="#FEFEFE" transform="translate(75,73)"/>
<path d="M0 0 C2.43745955 1.78747034 2.97918528 3.5382534 3.875 6.375 C2.885 6.375 1.895 6.375 0.875 6.375 C-0.13905257 5.05232273 -1.13768258 3.71775169 -2.125 2.375 C-4.20834635 1.1233533 -4.20834635 1.1233533 -6.125 0.375 C-3.73999846 -0.47678626 -2.4584349 -0.72306909 0 0 Z " fill="#232323" transform="translate(91.125,42.625)"/>
<path d="M0 0 C1.98 0 3.96 0 6 0 C5.67 1.65 5.34 3.3 5 5 C4.01 5 3.02 5 2 5 C1.34 4.34 0.68 3.68 0 3 C0 2.01 0 1.02 0 0 Z " fill="#444444" transform="translate(60,75)"/>
<path d="M0 0 C1.32 0.33 2.64 0.66 4 1 C3.67 2.32 3.34 3.64 3 5 C2.01 5 1.02 5 0 5 C0 3.35 0 1.7 0 0 Z " fill="#5B5B5B" transform="translate(86,75)"/>
<path d="M0 0 C1.32 0 2.64 0 4 0 C4 1.65 4 3.3 4 5 C2.68 5 1.36 5 0 5 C0 3.35 0 1.7 0 0 Z " fill="#505050" transform="translate(74,75)"/>
<path d="M0 0 C1.32 0.33 2.64 0.66 4 1 C3.67 2.32 3.34 3.64 3 5 C2.01 5 1.02 5 0 5 C0 3.35 0 1.7 0 0 Z " fill="#565656" transform="translate(54,75)"/>
</svg>
